<svg width="220" height="36" viewBox="0 0 220 36" fill="none" xmlns="http://www.w3.org/2000/svg">
<path d="M26.156 11.779C26.156 13.731 25.708 15.523 24.812 17.155C23.916 18.755 22.54 20.051 20.684 21.043C18.828 22.035 16.524 22.531 13.772 22.531H8.684V34.627H0.476V0.930952H13.772C16.46 0.930952 18.732 1.39495 20.588 2.32295C22.444 3.25095 23.836 4.53095 24.764 6.16295C25.692 7.79495 26.156 9.66695 26.156 11.779ZM13.148 16.003C14.716 16.003 15.884 15.635 16.652 14.899C17.42 14.163 17.804 13.123 17.804 11.779C17.804 10.435 17.42 9.39495 16.652 8.65895C15.884 7.92295 14.716 7.55495 13.148 7.55495H8.684V16.003H13.148ZM28.7971 21.187C28.7971 18.435 29.3091 16.019 30.3331 13.939C31.3891 11.859 32.8131 10.259 34.6051 9.13895C36.3971 8.01895 38.3971 7.45895 40.6051 7.45895C42.4931 7.45895 44.1411 7.84295 45.5491 8.61095C46.9891 9.37895 48.0931 10.387 48.8611 11.635V7.84295H57.0691V34.627H48.8611V30.835C48.0611 32.083 46.9411 33.091 45.5011 33.859C44.0931 34.627 42.4451 35.011 40.5571 35.011C38.3811 35.011 36.3971 34.451 34.6051 33.331C32.8131 32.179 31.3891 30.563 30.3331 28.483C29.3091 26.371 28.7971 23.939 28.7971 21.187ZM48.8611 21.235C48.8611 19.187 48.2851 17.571 47.1331 16.387C46.0131 15.203 44.6371 14.611 43.0051 14.611C41.3731 14.611 39.9811 15.203 38.8291 16.387C37.7091 17.539 37.1491 19.139 37.1491 21.187C37.1491 23.235 37.7091 24.867 38.8291 26.083C39.9811 27.267 41.3731 27.859 43.0051 27.859C44.6371 27.859 46.0131 27.267 47.1331 26.083C48.2851 24.899 48.8611 23.283 48.8611 21.235ZM101.455 7.84295L94.2073 34.627H85.1353L80.9113 17.251L76.5433 34.627H67.5193L60.2233 7.84295H68.4313L72.2233 26.995L76.7353 7.84295H85.4233L89.9833 26.899L93.7273 7.84295H101.455ZM103.193 17.731C103.193 14.403 103.913 11.443 105.353 8.85095C106.793 6.22695 108.793 4.19495 111.353 2.75495C113.945 1.28295 116.873 0.546951 120.137 0.546951C124.137 0.546951 127.561 1.60295 130.409 3.71495C133.257 5.82695 135.161 8.70695 136.121 12.355H127.097C126.425 10.947 125.465 9.87495 124.217 9.13895C123.001 8.40295 121.609 8.03495 120.041 8.03495C117.513 8.03495 115.465 8.91495 113.897 10.675C112.329 12.435 111.545 14.787 111.545 17.731C111.545 20.675 112.329 23.027 113.897 24.787C115.465 26.547 117.513 27.427 120.041 27.427C121.609 27.427 123.001 27.059 124.217 26.323C125.465 25.587 126.425 24.515 127.097 23.107H136.121C135.161 26.755 133.257 29.635 130.409 31.747C127.561 33.827 124.137 34.867 120.137 34.867C116.873 34.867 113.945 34.147 111.353 32.707C108.793 31.235 106.793 29.203 105.353 26.611C103.913 24.019 103.193 21.059 103.193 17.731ZM139.516 21.187C139.516 18.435 140.028 16.019 141.052 13.939C142.108 11.859 143.532 10.259 145.324 9.13895C147.116 8.01895 149.116 7.45895 151.324 7.45895C153.212 7.45895 154.86 7.84295 156.268 8.61095C157.708 9.37895 158.812 10.387 159.58 11.635V7.84295H167.788V34.627H159.58V30.835C158.78 32.083 157.66 33.091 156.22 33.859C154.812 34.627 153.164 35.011 151.276 35.011C149.1 35.011 147.116 34.451 145.324 33.331C143.532 32.179 142.108 30.563 141.052 28.483C140.028 26.371 139.516 23.939 139.516 21.187ZM159.58 21.235C159.58 19.187 159.004 17.571 157.852 16.387C156.732 15.203 155.356 14.611 153.724 14.611C152.092 14.611 150.7 15.203 149.548 16.387C148.428 17.539 147.868 19.139 147.868 21.187C147.868 23.235 148.428 24.867 149.548 26.083C150.7 27.267 152.092 27.859 153.724 27.859C155.356 27.859 156.732 27.267 157.852 26.083C159.004 24.899 159.58 23.283 159.58 21.235ZM181.934 12.307C182.894 10.835 184.094 9.68295 185.534 8.85095C186.974 7.98695 188.574 7.55495 190.334 7.55495V16.243H188.078C186.03 16.243 184.494 16.691 183.47 17.587C182.446 18.451 181.934 19.987 181.934 22.195V34.627H173.726V7.84295H181.934V12.307ZM219.505 20.803C219.505 21.571 219.457 22.371 219.361 23.203H200.785C200.913 24.867 201.441 26.147 202.369 27.043C203.329 27.907 204.497 28.339 205.873 28.339C207.921 28.339 209.345 27.475 210.145 25.747H218.881C218.433 27.507 217.617 29.091 216.433 30.499C215.281 31.907 213.825 33.011 212.065 33.811C210.305 34.611 208.337 35.011 206.161 35.011C203.537 35.011 201.201 34.451 199.153 33.331C197.105 32.211 195.505 30.611 194.353 28.531C193.201 26.451 192.625 24.019 192.625 21.235C192.625 18.451 193.185 16.019 194.305 13.939C195.457 11.859 197.057 10.259 199.105 9.13895C201.153 8.01895 203.505 7.45895 206.161 7.45895C208.753 7.45895 211.057 8.00295 213.073 9.09095C215.089 10.179 216.657 11.731 217.777 13.747C218.929 15.763 219.505 18.115 219.505 20.803ZM211.105 18.643C211.105 17.235 210.625 16.115 209.665 15.283C208.705 14.451 207.505 14.035 206.065 14.035C204.689 14.035 203.521 14.435 202.561 15.235C201.633 16.035 201.057 17.171 200.833 18.643H211.105Z" fill="white"/>
</svg>
