<svg width="186" height="186" viewBox="0 0 186 186" fill="none" xmlns="http://www.w3.org/2000/svg">
<path d="M92.0745 1.90073C92.4136 1.0725 93.5864 1.07248 93.9255 1.90073L101.789 21.1126C102.642 23.196 105.4 23.6328 106.855 21.915L120.271 6.07346C120.849 5.39052 121.965 5.75297 122.031 6.64544L123.574 27.3471C123.741 29.592 126.229 30.8598 128.144 29.6756L145.798 18.7552C146.559 18.2844 147.508 18.9738 147.296 19.8431L142.365 40.0082C141.83 42.1949 143.805 44.1695 145.992 43.6349L166.157 38.7045C167.026 38.4919 167.716 39.4408 167.245 40.2019L156.324 57.8565C155.14 59.7709 156.408 62.2591 158.653 62.4263L179.355 63.9686C180.247 64.0351 180.609 65.1506 179.927 65.729L164.085 79.1448C162.367 80.5996 162.804 83.3578 164.887 84.2106L184.099 92.0745C184.928 92.4136 184.928 93.5864 184.099 93.9255L164.887 101.789C162.804 102.642 162.367 105.4 164.085 106.855L179.927 120.271C180.609 120.849 180.247 121.965 179.355 122.031L158.653 123.574C156.408 123.741 155.14 126.229 156.324 128.144L167.245 145.798C167.716 146.559 167.026 147.508 166.157 147.296L145.992 142.365C143.805 141.83 141.83 143.805 142.365 145.992L147.296 166.157C147.508 167.026 146.559 167.716 145.798 167.245L128.144 156.324C126.229 155.14 123.741 156.408 123.574 158.653L122.031 179.355C121.965 180.247 120.849 180.609 120.271 179.927L106.855 164.085C105.4 162.367 102.642 162.804 101.789 164.887L93.9255 184.099C93.5864 184.928 92.4136 184.928 92.0745 184.099L84.2106 164.887C83.3578 162.804 80.5996 162.367 79.1448 164.085L65.7289 179.927C65.1506 180.609 64.0351 180.247 63.9686 179.355L62.4263 158.653C62.2591 156.408 59.7709 155.14 57.8565 156.324L40.2019 167.245C39.4408 167.716 38.4919 167.026 38.7045 166.157L43.6349 145.992C44.1695 143.805 42.1949 141.83 40.0082 142.365L19.8431 147.296C18.9738 147.508 18.2844 146.559 18.7552 145.798L29.6756 128.144C30.8598 126.229 29.592 123.741 27.3471 123.574L6.64544 122.031C5.75297 121.965 5.39053 120.849 6.07347 120.271L21.915 106.855C23.6328 105.4 23.196 102.642 21.1126 101.789L1.90073 93.9255C1.0725 93.5864 1.07248 92.4136 1.90073 92.0745L21.1126 84.2106C23.196 83.3578 23.6328 80.5996 21.915 79.1448L6.07346 65.7289C5.39052 65.1506 5.75297 64.0351 6.64544 63.9686L27.3471 62.4263C29.592 62.2591 30.8598 59.7709 29.6756 57.8565L18.7552 40.2019C18.2844 39.4408 18.9738 38.4919 19.8431 38.7045L40.0082 43.6349C42.1949 44.1695 44.1695 42.1949 43.6349 40.0082L38.7045 19.8431C38.4919 18.9738 39.4408 18.2844 40.2019 18.7552L57.8565 29.6756C59.7709 30.8598 62.2591 29.592 62.4263 27.3471L63.9686 6.64544C64.0351 5.75297 65.1506 5.39053 65.729 6.07347L79.1448 21.915C80.5996 23.6328 83.3578 23.196 84.2106 21.1126L92.0745 1.90073Z" stroke="#FEED11" stroke-width="2"/>
</svg>
