<svg width="160" height="160" viewBox="0 0 160 160" fill="none" xmlns="http://www.w3.org/2000/svg">
<path d="M65.5215 7.21175C69.706 10.8556 76.6068 10.1759 80 5.78574C83.3932 10.1759 90.294 10.8556 94.4785 7.21175C96.95 12.1796 103.586 14.1925 108.401 11.435C109.855 16.7895 115.971 20.0583 121.231 18.2931C121.614 23.8286 126.974 28.2276 132.477 27.5226C131.772 33.0263 136.171 38.3865 141.707 38.7688C139.942 44.0291 143.211 50.1446 148.565 51.5994C145.808 56.4144 147.82 63.05 152.788 65.5215C149.144 69.706 149.824 76.6068 154.214 80C149.824 83.3932 149.144 90.294 152.788 94.4785C147.82 96.95 145.808 103.586 148.565 108.401C143.211 109.855 139.942 115.971 141.707 121.231C136.171 121.613 131.772 126.974 132.477 132.477C126.974 131.772 121.613 136.171 121.231 141.707C115.971 139.942 109.855 143.211 108.401 148.565C103.586 145.808 96.95 147.82 94.4785 152.788C90.294 149.144 83.3932 149.824 80 154.214C76.6068 149.824 69.706 149.144 65.5215 152.788C63.05 147.82 56.4144 145.808 51.5994 148.565C50.1446 143.211 44.0291 139.942 38.7688 141.707C38.3865 136.171 33.0263 131.772 27.5226 132.477C28.2276 126.974 23.8286 121.614 18.2931 121.231C20.0583 115.971 16.7895 109.855 11.435 108.401C14.1925 103.586 12.1796 96.95 7.21175 94.4785C10.8556 90.294 10.1759 83.3932 5.78574 80C10.1759 76.6068 10.8556 69.706 7.21175 65.5215C12.1796 63.05 14.1925 56.4144 11.435 51.5994C16.7895 50.1446 20.0583 44.0291 18.2931 38.7688C23.8286 38.3865 28.2276 33.0263 27.5226 27.5226C33.0263 28.2276 38.3865 23.8286 38.7688 18.2931C44.0291 20.0583 50.1446 16.7895 51.5994 11.435C56.4144 14.1925 63.05 12.1796 65.5215 7.21175Z" stroke="#FE5F5F" stroke-width="4"/>
</svg>
