<svg width="175" height="130" viewBox="0 0 175 130" fill="none" xmlns="http://www.w3.org/2000/svg">
<path d="M1 75.8985C23.9877 46.2429 53.8198 15.2459 93.8805 4.37923C102.242 2.11119 114.41 -0.903219 123.084 2.59978C135.666 7.68055 148.002 25.0939 145.345 38.1539C145.283 38.4582 145.208 38.7811 145.119 39.1199M145.119 39.1199C143.432 45.566 136.992 57.8072 129.241 58.2368C121.263 58.679 120.975 49.667 123.084 45.3146C128.055 35.0553 136.681 34.988 145.119 39.1199ZM145.119 39.1199C155.109 44.0119 164.836 54.79 167.922 61.5096C172.381 71.2192 176.782 84.4601 171.78 95.1899C165.751 108.124 155.524 119.528 142.03 125.18M139.611 125.074C140.25 123.818 141.763 118.961 143.457 118.429M140.252 126.282C142.904 127.067 145.642 127.529 148.23 128.497C148.75 128.691 149.315 128.561 149.547 129" stroke="#2BFD86" stroke-width="2" stroke-linecap="round" stroke-dasharray="4 4"/>
</svg>
