<svg width="216" height="248" viewBox="0 0 216 248" fill="none" xmlns="http://www.w3.org/2000/svg">
<path d="M1 80.0399C11.9475 78.0495 20.8223 67.3507 31.9578 64.1692C49.6499 59.1143 66.1045 60.0142 84.0767 58.683C92.3942 58.0668 102.964 55.5848 112.625 51.4048M112.625 51.4048C122.768 47.0163 131.909 40.7564 136.392 32.8195C140.781 25.0465 148.241 7.35008 136.392 2.2535C122.658 -3.65332 102.668 12.4669 102.495 26.5495C102.395 34.6417 107.234 43.6291 112.625 51.4048ZM112.625 51.4048C116.583 57.113 120.838 62.1681 123.656 65.7366C149.206 98.0974 178.793 127.115 204.087 159.688C211.081 168.694 215.527 178.198 214.178 189.666C213.024 199.47 210.978 209.357 202.912 214.942C190.791 223.333 178.015 237.555 163.235 240.511M160.51 239.093C162.464 236.922 163.15 233.725 164.795 231.297C165.622 230.076 166.374 229.088 166.832 227.714M161.142 240.99C162.66 242.339 163.258 243.437 165.708 243.518C169.357 243.64 171.442 245.191 174.418 246.679" stroke="#00A146" stroke-width="1.5" stroke-linecap="round" stroke-dasharray="4 4"/>
</svg>
