<svg width="194" height="181" viewBox="0 0 194 181" fill="none" xmlns="http://www.w3.org/2000/svg">
<path d="M1 40.5839C14.0504 32.7624 22.3991 19.4998 35.6746 11.5661L35.7335 11.5309C41.7027 7.96354 52.5295 1.49308 59.9741 1.3117C67.1339 1.13727 75.9888 -0.174576 82.0348 4.31166C89.1497 9.59115 92.096 18.1272 97.8158 24.6568C99.3204 26.3744 100.999 27.8225 102.807 29.0516M102.807 29.0516C106.99 31.8957 111.865 33.5674 116.873 34.693C124.25 36.351 127.317 32.1924 129.651 25.3659C133.275 14.7654 123.684 14.3456 116.109 17.6751C110.256 20.2472 105.894 24.2309 102.807 29.0516ZM102.807 29.0516C94.6314 41.8192 95.404 60.4578 101.147 74.2925C103.693 80.4276 107.411 88.0744 114.744 87.6559C125.062 87.0669 134.963 85.2859 145.377 85.8559C157.875 86.54 172.037 88.4708 181.417 97.5285C187.927 103.815 189.932 111.368 192.065 119.892C193.329 124.943 193.239 131.59 192.229 136.582C190.712 144.083 183.61 148.349 177.813 152.455C174.537 154.775 169.698 157.782 166.673 160.582C161.318 165.54 159.034 171.959 155.316 178.036M153.35 177.055C153.295 173.073 153.146 169.165 152.367 165.273M155.315 180H171.042" stroke="#2BFD86" stroke-width="2" stroke-linecap="round" stroke-dasharray="4 4"/>
</svg>
