<svg width="935" height="716" viewBox="0 0 935 716" fill="none" xmlns="http://www.w3.org/2000/svg">
<path d="M147.034 0.586959C128.928 0.586959 104.053 0.484467 87.9516 10.0261C74.2456 18.1482 55.2133 25.2424 44.4266 38.5184C33.8473 51.5391 11.7392 68.4074 11.7392 86.9378C11.7392 99.404 7.60952 114.917 2.9992 126.442C-2.10828 139.211 2.3 162.148 2.3 176.085C2.3 189.173 0.0749636 204.029 5.44639 216.114C10.8037 228.168 12.3389 246.194 22.9263 255.269C31.1887 262.351 38.3193 272.113 46.3494 280.615C63.5548 298.833 81.1851 319.44 96.6916 338.823C103.471 347.297 112.674 353.232 120.289 360.848C127.726 368.285 136.443 375.451 141.44 384.446C156.839 412.164 175.31 439.81 184.79 470.622C195.335 504.892 209.961 539.657 209.961 577.075C209.961 602.449 215.097 646.6 239.852 659.93C247.218 663.896 249.993 671.294 255.759 677.06C263.348 684.649 273.619 686.29 281.979 692.792C291.243 699.998 299.683 698.436 310.646 702.231C321.219 705.891 328.131 714.817 339.662 714.817C375.504 714.817 420.783 680.537 441.221 652.238C458.623 628.143 465.95 597.903 480.551 571.831C496.493 543.362 512.131 516.234 523.901 485.83C534.7 457.931 547.616 428.543 563.056 402.625C577.724 378.004 602.265 360.604 624.061 342.844C639.653 330.139 649.806 314.223 666.537 302.64C680.959 292.656 695.079 283.417 710.237 274.323C736.226 258.729 758.517 249.197 787.498 239.712C823.215 228.023 869.88 216.093 902.166 241.46C911.546 248.83 924.191 256.122 924.191 269.603C924.191 273.781 930.957 288.718 933.63 290.054" stroke="#2BFD86" stroke-linecap="round" stroke-dasharray="16 16"/>
</svg>
