<svg width="91" height="152" viewBox="0 0 91 152" fill="none" xmlns="http://www.w3.org/2000/svg">
<path d="M85.8328 1C88.9914 11.1075 92.1137 29.2929 86.0104 38.839C81.6406 45.6739 73.1751 52.4011 64.7246 55.3535M64.7246 55.3535C62.6803 56.0677 60.637 56.561 58.6527 56.7814C55.9454 57.0822 48.2603 58.5454 48.2603 54.2055C48.2603 51.6373 54.2329 52.1234 56.0768 52.1626C59.8095 52.242 62.5962 53.4148 64.7246 55.3535ZM64.7246 55.3535C67.4324 57.8199 69.0747 61.5259 70.2442 65.7971C74.0731 79.7808 72.6959 92.3563 64.3374 104.658C51.547 123.481 29.7959 140.898 5.89124 140.898M1 140.595C1.19914 138.604 2.95842 135.836 3.99487 134.147C4.66766 133.05 5.33861 131.812 6.15862 130.822C6.58011 130.313 7.02747 130.155 7.19035 129.504M1 142.143C2.67583 143.818 4.64419 145.08 6.30192 146.785C7.74499 148.27 9.45246 149.369 11.0593 150.654" stroke="#FE5F5F" stroke-width="1.5" stroke-linecap="round" stroke-dasharray="4 4"/>
</svg>
