<svg width="140" height="117" viewBox="0 0 140 117" fill="none" xmlns="http://www.w3.org/2000/svg">
<path d="M137.955 105.586C135.157 89.6289 134.176 72.0071 126.637 57.43C121.599 47.6861 112.749 36.3595 101.335 34.7212C87.73 32.7687 79.3766 39.3753 73.618 49.1467M73.618 49.1467C70.9018 53.7557 68.7629 59.0687 66.9226 64.5198C62.6405 77.2035 58.6441 92.0747 62.0678 105.531C62.8415 108.572 64.262 112.485 67.4375 113.755C77.8478 117.917 82.4588 105.871 85.3293 97.9123C88.12 90.1747 87.5751 83.2174 85.0801 75.3922C82.172 66.2711 78.3945 57.4119 73.618 49.1467ZM73.618 49.1467C70.5011 43.7534 66.9589 38.613 62.9553 33.8179C53.2609 22.207 42.9835 15.1 28.1896 11.968C20.703 10.383 13.5813 9.92604 6.5411 7.27831M18.5483 1.58269C17.2381 1.97185 1.75944 5.37061 2.37718 7.45042C3.43642 11.0167 7.7188 13.7809 10.2 16.2465C16.5521 22.5587 20.0237 31.4136 23.4898 39.5069" stroke="#FF8E8E" stroke-width="3" stroke-linecap="round"/>
</svg>
