<svg width="110" height="110" viewBox="0 0 110 110" fill="none" xmlns="http://www.w3.org/2000/svg">
<path d="M54.0027 2.32542C54.0931 1.08945 55.9069 1.08939 55.9973 2.32543L57.3843 21.2746C57.6157 24.4373 61.9567 25.1248 63.1542 22.1885L70.3288 4.59531C70.7968 3.44784 72.5218 4.00816 72.2259 5.21172L67.6893 23.662C66.9321 26.7415 70.8481 28.7368 72.8944 26.3142L85.1545 11.7991C85.9542 10.8524 87.4215 11.9184 86.7682 12.9716L76.7522 29.117C75.0805 31.8118 78.1882 34.9195 80.883 33.2478L97.0284 23.2318C98.0815 22.5785 99.1477 24.0457 98.2009 24.8455L83.6858 37.1056C81.2632 39.1519 83.2586 43.0679 86.338 42.3107L104.788 37.7741C105.992 37.4783 106.552 39.2032 105.405 39.6712L87.8115 46.8459C84.8752 48.0433 85.5627 52.3843 88.7254 52.6157L107.675 54.0027C108.911 54.0931 108.911 55.9069 107.675 55.9973L88.7254 57.3843C85.5627 57.6157 84.8752 61.9567 87.8115 63.1542L105.405 70.3288C106.552 70.7968 105.992 72.5218 104.788 72.2259L86.338 67.6893C83.2585 66.9321 81.2632 70.8481 83.6858 72.8944L98.2009 85.1545C99.1476 85.9542 98.0816 87.4215 97.0284 86.7682L80.883 76.7522C78.1882 75.0805 75.0805 78.1882 76.7522 80.883L86.7682 97.0284C87.4215 98.0815 85.9542 99.1477 85.1545 98.2008L72.8944 83.6858C70.8481 81.2632 66.9321 83.2586 67.6893 86.338L72.2259 104.788C72.5217 105.992 70.7968 106.552 70.3288 105.405L63.1541 87.8115C61.9567 84.8752 57.6157 85.5627 57.3843 88.7254L55.9973 107.675C55.9069 108.911 54.0931 108.911 54.0027 107.675L52.6157 88.7254C52.3843 85.5627 48.0433 84.8752 46.8458 87.8115L39.6712 105.405C39.2032 106.552 37.4782 105.992 37.7741 104.788L42.3107 86.338C43.0679 83.2585 39.1519 81.2633 37.1056 83.6858L24.8455 98.2009C24.0458 99.1476 22.5785 98.0816 23.2318 97.0284L33.2478 80.883C34.9195 78.1882 31.8118 75.0805 29.117 76.7522L12.9716 86.7682C11.9185 87.4215 10.8523 85.9542 11.7992 85.1545L26.3142 72.8944C28.7368 70.8481 26.7415 66.9321 23.662 67.6893L5.2117 72.2259C4.00834 72.5217 3.44766 70.7968 4.59533 70.3288L22.1885 63.1541C25.1249 61.9567 24.4373 57.6157 21.2746 57.3843L2.32542 55.9973C1.08945 55.9069 1.08939 54.0931 2.32543 54.0027L21.2746 52.6157C24.4373 52.3843 25.1248 48.0433 22.1885 46.8458L4.59531 39.6712C3.44782 39.2032 4.00818 37.4782 5.21172 37.7741L23.662 42.3107C26.7415 43.0679 28.7367 39.1519 26.3142 37.1056L11.7991 24.8455C10.8524 24.0459 11.9184 22.5784 12.9716 23.2318L29.117 33.2478C31.8118 34.9195 34.9195 31.8118 33.2478 29.117L23.2318 12.9716C22.5785 11.9185 24.0458 10.8523 24.8455 11.7992L37.1056 26.3142C39.1519 28.7368 43.0679 26.7415 42.3107 23.662L37.7741 5.2117C37.4783 4.00834 39.2032 3.44767 39.6712 4.59533L46.8459 22.1885C48.0433 25.1249 52.3843 24.4373 52.6157 21.2746L54.0027 2.32542Z" stroke="#FEED11" stroke-width="2"/>
</svg>
